<svg version="1.1" xmlns="http://www.w3.org/2000/svg" viewBox="0 0 724.08447265625 1211.3828125" width="724.08447265625" height="1211.3828125" filter="invert(93%) hue-rotate(180deg)">
  <!-- svg-source:excalidraw -->
  
  <defs>
    <style class="style-fonts">
      @font-face {
        font-family: "Virgil";
        src: url("https://excalidraw.com/Virgil.woff2");
      }
      @font-face {
        font-family: "Cascadia";
        src: url("https://excalidraw.com/Cascadia.woff2");
      }
    </style>
    
  </defs>
  <rect x="0" y="0" width="724.08447265625" height="1211.3828125" fill="#ffffff"></rect><g stroke-linecap="round" transform="translate(347.53076171875 10) rotate(0 145.052734375 50.123046875)"><path d="M25.06 0 C117.1 0.34, 206.3 0.31, 265.04 0 M25.06 0 C107.72 1.3, 192.16 1.58, 265.04 0 M265.04 0 C282.99 1.76, 288.32 6.97, 290.11 25.06 M265.04 0 C280.07 0.65, 289.07 10.38, 290.11 25.06 M290.11 25.06 C288.8 34.35, 289.6 46.85, 290.11 75.18 M290.11 25.06 C290.59 36.57, 288.97 46.5, 290.11 75.18 M290.11 75.18 C288.55 91.14, 283.16 99.89, 265.04 100.25 M290.11 75.18 C287.93 90.03, 280.3 102.51, 265.04 100.25 M265.04 100.25 C213.67 100.69, 165 99.68, 25.06 100.25 M265.04 100.25 C199.96 101.26, 135.81 102.19, 25.06 100.25 M25.06 100.25 C8.21 100.82, -0.7 91.99, 0 75.18 M25.06 100.25 C6.32 99.18, 1.34 92.27, 0 75.18 M0 75.18 C1.59 63.5, 0.03 50.61, 0 25.06 M0 75.18 C-1.34 63.56, -0.29 51.69, 0 25.06 M0 25.06 C0.08 8.44, 8.06 -0.47, 25.06 0 M0 25.06 C1.83 9.2, 7.95 0.88, 25.06 0" stroke="#9c36b5" stroke-width="2" fill="none"></path></g><g transform="translate(408.58349609375 41.462500000000006) rotate(0 84 16.099999999999994)"><text x="84" y="0" font-family="Helvetica, Segoe UI Emoji" font-size="28px" fill="#9c36b5" text-anchor="middle" style="white-space: pre;" direction="ltr" dominant-baseline="text-before-edge">注册所有画布</text></g><g stroke-linecap="round" transform="translate(391.65576171875 214.9140625) rotate(0 101.61328125 89.21484375)"><path d="M73.3 2.46 C84.81 -1.96, 99.85 -1.38, 112.89 -0.01 C125.94 1.36, 140.06 4.93, 151.55 10.69 C163.04 16.44, 173.87 25.49, 181.81 34.51 C189.75 43.52, 195.71 53.96, 199.18 64.77 C202.65 75.59, 204.2 87.97, 202.62 99.4 C201.05 110.83, 196.06 123.56, 189.73 133.35 C183.39 143.14, 174.5 151.3, 164.61 158.12 C154.71 164.94, 142.75 170.84, 130.36 174.27 C117.97 177.71, 103.37 179.96, 90.28 178.73 C77.2 177.51, 63.3 172.46, 51.83 166.91 C40.36 161.36, 29.34 154.3, 21.47 145.43 C13.6 136.56, 8.08 124.6, 4.6 113.69 C1.12 102.78, -0.83 91.17, 0.61 79.97 C2.06 68.76, 6.98 56.59, 13.29 46.47 C19.59 36.35, 26.81 26.81, 38.46 19.25 C50.11 11.69, 73.81 4.08, 83.18 1.09 C92.56 -1.9, 94.15 -0.23, 94.7 1.31 M93.5 -1.08 C105.27 -3.68, 119.27 -0.57, 131.38 3.33 C143.48 7.23, 156.09 14.84, 166.15 22.32 C176.2 29.79, 185.6 38.16, 191.7 48.18 C197.8 58.2, 201.45 71.02, 202.75 82.45 C204.04 93.87, 203.54 105.78, 199.48 116.72 C195.42 127.66, 186.93 139.36, 178.41 148.11 C169.88 156.85, 159.48 164.31, 148.32 169.19 C137.15 174.08, 124.52 176.66, 111.43 177.42 C98.33 178.19, 82.36 177.24, 69.74 173.78 C57.13 170.32, 45.44 164.13, 35.74 156.66 C26.03 149.2, 17.54 138.86, 11.53 129.01 C5.52 119.15, 0.99 108.81, -0.33 97.52 C-1.65 86.23, -0.45 72.26, 3.61 61.26 C7.68 50.25, 15.64 39.85, 24.06 31.5 C32.48 23.14, 42.41 16.44, 54.14 11.13 C65.87 5.82, 87.71 0.88, 94.44 -0.39 C101.18 -1.66, 94.55 2.18, 94.55 3.53" stroke="#1971c2" stroke-width="2" fill="none"></path></g><g stroke-linecap="round"><g transform="translate(489.47607421875 107.2421875) rotate(0 1.9703651197089584 53.515998337887154)"><path d="M-0.11 -0.09 C0.58 1.07, 3.86 -11.31, 4.05 7.06 C4.23 25.43, 1.5 92.96, 0.97 110.13 M0.11 0.21 C0.8 1.38, 3.83 -11.45, 3.96 6.83 C4.09 25.11, 1.39 92.63, 0.88 109.87" stroke="#1e1e1e" stroke-width="2" fill="none"></path></g><g transform="translate(489.47607421875 107.2421875) rotate(0 1.9703651197089584 53.515998337887154)"><path d="M-8.4 81.34 C-6.47 87.83, -4.09 94.03, 0.88 109.87 M-8.4 81.34 C-5.32 91.08, -2.2 100.96, 0.88 109.87" stroke="#1e1e1e" stroke-width="2" fill="none"></path></g><g transform="translate(489.47607421875 107.2421875) rotate(0 1.9703651197089584 53.515998337887154)"><path d="M12.11 82.05 C9.48 88.36, 7.31 94.41, 0.88 109.87 M12.11 82.05 C8.14 91.55, 4.22 101.19, 0.88 109.87" stroke="#1e1e1e" stroke-width="2" fill="none"></path></g></g><mask></mask><g transform="translate(468.37255859375 284.571875) rotate(0 24.896484375 16.099999999999994)"><text x="24.896484375" y="0" font-family="Helvetica, Segoe UI Emoji" font-size="28px" fill="#9c36b5" text-anchor="middle" style="white-space: pre;" direction="ltr" dominant-baseline="text-before-edge">wait</text></g><g stroke-linecap="round" transform="translate(10 244.53515625) rotate(0 108.4296875 67.583984375)"><path d="M32 0 C75.4 1.1, 116.57 0.88, 184.86 0 M32 0 C83.76 1.55, 136.07 0.46, 184.86 0 M184.86 0 C205.93 -1.62, 217.22 9.57, 216.86 32 M184.86 0 C205.17 0.38, 215.28 11.44, 216.86 32 M216.86 32 C216.99 58.06, 217.03 83.06, 216.86 103.17 M216.86 32 C217.74 60.55, 216.22 89.47, 216.86 103.17 M216.86 103.17 C217.06 122.68, 204.88 135.2, 184.86 135.17 M216.86 103.17 C216.81 124.95, 208.3 135.08, 184.86 135.17 M184.86 135.17 C140.16 134.21, 98.04 133, 32 135.17 M184.86 135.17 C144.96 133.1, 105.45 133.15, 32 135.17 M32 135.17 C12.48 133.39, -0.02 123.31, 0 103.17 M32 135.17 C8.81 137.44, -0.02 124.62, 0 103.17 M0 103.17 C-1.15 79.44, -1.25 52.37, 0 32 M0 103.17 C0.48 76.32, -0.69 50.38, 0 32 M0 32 C0.94 11.62, 8.77 1.24, 32 0 M0 32 C1.27 11.06, 12.91 1.62, 32 0" stroke="#9c36b5" stroke-width="2" fill="none"></path></g><g stroke-linecap="round"><g transform="translate(227.26123046875 314.30859375) rotate(0 82.21066941864103 -5.228803336226036)"><path d="M-0.14 0.13 C27.31 -1.57, 137.13 -8.59, 164.56 -10.37 M0.11 0.05 C27.55 -1.68, 137.06 -8.86, 164.42 -10.59" stroke="#1e1e1e" stroke-width="2" fill="none"></path></g><g transform="translate(227.26123046875 314.30859375) rotate(0 82.21066941864103 -5.228803336226036)"><path d="M136.95 1.47 C143.36 -1.18, 149.56 -4.08, 164.42 -10.59 M136.95 1.47 C145.23 -2.02, 153.43 -5.71, 164.42 -10.59" stroke="#1e1e1e" stroke-width="2" fill="none"></path></g><g transform="translate(227.26123046875 314.30859375) rotate(0 82.21066941864103 -5.228803336226036)"><path d="M135.63 -19.01 C142.3 -17.09, 148.8 -15.41, 164.42 -10.59 M135.63 -19.01 C144.28 -16.33, 152.88 -13.86, 164.42 -10.59" stroke="#1e1e1e" stroke-width="2" fill="none"></path></g></g><mask></mask><g transform="translate(70.9814453125 296.44140625) rotate(0 47.4482421875 16.099999999999994)"><text x="47.4482421875" y="0" font-family="Helvetica, Segoe UI Emoji" font-size="28px" fill="#9c36b5" text-anchor="middle" style="white-space: pre;" direction="ltr" dominant-baseline="text-before-edge">url 变化</text></g><g stroke-linecap="round" transform="translate(323.22998046875 541.5859375) rotate(0 165.65234375 96.33984375)"><path d="M207.5 24.25 C233.86 41.66, 259.38 54.87, 289.8 72.75 M207.5 24.25 C228.96 36.7, 249.64 50.67, 289.8 72.75 M289.8 72.75 C330.5 97.7, 330.14 98.38, 289.8 121.25 M289.8 72.75 C331.66 97.92, 333.48 96.8, 289.8 121.25 M289.8 121.25 C261.02 135.4, 233.33 150.14, 207.5 168.43 M289.8 121.25 C270.37 131.99, 251.56 143.17, 207.5 168.43 M207.5 168.43 C167.59 191.69, 165.88 191.44, 124.5 168.43 M207.5 168.43 C168.14 193.99, 163.72 193.44, 124.5 168.43 M124.5 168.43 C99.69 156.57, 77.82 141.63, 41.5 121.25 M124.5 168.43 C102.36 156.03, 79.4 141.87, 41.5 121.25 M41.5 121.25 C1.69 98.2, 0.84 96.51, 41.5 72.75 M41.5 121.25 C1.57 96.78, -0.16 96.22, 41.5 72.75 M41.5 72.75 C74.48 53.11, 102.3 38.24, 124.5 24.25 M41.5 72.75 C69.36 57.74, 97.08 41.53, 124.5 24.25 M124.5 24.25 C167.32 -0.28, 164.06 -1.34, 207.5 24.25 M124.5 24.25 C167.13 0.12, 166.87 -1.09, 207.5 24.25" stroke="#e03131" stroke-width="2" fill="none"></path></g><g stroke-linecap="round"><g transform="translate(483.84326171875 391.390625) rotate(0 3.7235403317661735 77.1523995521832)"><path d="M0.03 -0.14 C1.28 25.61, 6.34 128.7, 7.59 154.44 M-0.15 0.15 C1.07 25.85, 6.21 128.45, 7.46 154.17" stroke="#1e1e1e" stroke-width="2" fill="none"></path></g><g transform="translate(483.84326171875 391.390625) rotate(0 3.7235403317661735 77.1523995521832)"><path d="M-4.18 126.52 C-0.23 136.56, 4.34 146.51, 7.46 154.17 M-4.18 126.52 C-1.38 133.35, 1.55 140.08, 7.46 154.17" stroke="#1e1e1e" stroke-width="2" fill="none"></path></g><g transform="translate(483.84326171875 391.390625) rotate(0 3.7235403317661735 77.1523995521832)"><path d="M16.32 125.51 C12.82 135.92, 9.93 146.24, 7.46 154.17 M16.32 125.51 C14.03 132.58, 11.89 139.56, 7.46 154.17" stroke="#1e1e1e" stroke-width="2" fill="none"></path></g></g><mask></mask><g transform="translate(414.95166015625 612.05859375) rotate(0 73.9306640625 16.100000000000023)"><text x="73.9306640625" y="0" font-family="Helvetica, Segoe UI Emoji" font-size="28px" fill="#9c36b5" text-anchor="middle" style="white-space: pre;" direction="ltr" dominant-baseline="text-before-edge">active的app</text></g><g stroke-linecap="round" transform="translate(296.8193359375 819.69921875) rotate(0 171.796875 73.2890625)"><path d="M32 0 C128.94 0.95, 227.25 1.24, 311.59 0 M32 0 C139.59 -0.48, 247.83 -0.46, 311.59 0 M311.59 0 C334.84 0.91, 345.28 9.85, 343.59 32 M311.59 0 C333.78 0.9, 343.31 11.77, 343.59 32 M343.59 32 C343.68 62.23, 342.46 92.51, 343.59 114.58 M343.59 32 C342.53 63.19, 342.27 96.06, 343.59 114.58 M343.59 114.58 C343.54 137.46, 332.32 144.82, 311.59 146.58 M343.59 114.58 C341.33 137.87, 331.85 146.02, 311.59 146.58 M311.59 146.58 C239.58 143.83, 165.9 143.54, 32 146.58 M311.59 146.58 C243.66 147.05, 176.76 148.24, 32 146.58 M32 146.58 C12.1 147.81, -1.47 136.53, 0 114.58 M32 146.58 C12.96 147.99, 1.67 133.67, 0 114.58 M0 114.58 C-1.03 83.46, 1.46 49.86, 0 32 M0 114.58 C-1.66 82.48, -0.03 52.3, 0 32 M0 32 C0.69 9.42, 10.42 0.85, 32 0 M0 32 C1.06 12.23, 8.59 -0.34, 32 0" stroke="#9c36b5" stroke-width="2" fill="none"></path></g><g transform="translate(338.685546875 874.34765625) rotate(0 129.9306640625 16.100000000000023)"><text x="129.9306640625" y="0" font-family="Helvetica, Segoe UI Emoji" font-size="28px" fill="#9c36b5" text-anchor="middle" style="white-space: pre;" direction="ltr" dominant-baseline="text-before-edge">找到对应active的app</text></g><g stroke-linecap="round"><g transform="translate(496.36669921875 731.5859375) rotate(0 -18.87301198996863 45.28442871526562)"><path d="M-0.05 -0.06 C-6.31 15.03, -31.28 75.48, -37.48 90.55 M-0.47 -0.37 C-6.77 14.77, -31.56 75.77, -37.7 90.94" stroke="#1e1e1e" stroke-width="2" fill="none"></path></g><g transform="translate(496.36669921875 731.5859375) rotate(0 -18.87301198996863 45.28442871526562)"><path d="M-36.6 60.96 C-37.07 70.99, -37.44 81.29, -37.7 90.94 M-36.6 60.96 C-36.54 67.76, -36.71 74.43, -37.7 90.94" stroke="#1e1e1e" stroke-width="2" fill="none"></path></g><g transform="translate(496.36669921875 731.5859375) rotate(0 -18.87301198996863 45.28442871526562)"><path d="M-17.59 68.67 C-24.32 76.16, -30.96 83.91, -37.7 90.94 M-17.59 68.67 C-21.82 73.74, -26.26 78.67, -37.7 90.94" stroke="#1e1e1e" stroke-width="2" fill="none"></path></g></g><mask></mask><g stroke-linecap="round" transform="translate(229.84228515625 1078.2890625) rotate(0 242.12109375 61.546875)"><path d="M30.77 0 C133.65 -0.46, 237.29 1.45, 453.47 0 M30.77 0 C158.41 2.09, 285.35 1.87, 453.47 0 M453.47 0 C474.22 0.67, 483.39 9.05, 484.24 30.77 M453.47 0 C472.94 -1, 482.35 11.8, 484.24 30.77 M484.24 30.77 C481.94 52.45, 482.78 76.55, 484.24 92.32 M484.24 30.77 C483.78 46.27, 484.34 63.43, 484.24 92.32 M484.24 92.32 C483.56 113.59, 475.95 121.92, 453.47 123.09 M484.24 92.32 C485.79 110.65, 475.23 123.97, 453.47 123.09 M453.47 123.09 C309.42 123.34, 167.36 121.84, 30.77 123.09 M453.47 123.09 C333.94 123.7, 213.76 123.56, 30.77 123.09 M30.77 123.09 C9.18 124.23, 1.63 113.69, 0 92.32 M30.77 123.09 C11.37 125.22, -0.22 115.02, 0 92.32 M0 92.32 C0.15 69.33, -1.2 51.94, 0 30.77 M0 92.32 C-0.51 79.23, 0.74 65.2, 0 30.77 M0 30.77 C0.73 10.1, 8.74 -0.65, 30.77 0 M0 30.77 C0.29 9.1, 10.39 -0.93, 30.77 0" stroke="#9c36b5" stroke-width="2" fill="none"></path></g><g transform="translate(270.01611328125 1105.375) rotate(0 201.947265625 32.200000000000045)"><text x="201.947265625" y="0" font-family="Helvetica, Segoe UI Emoji" font-size="28px" fill="#9c36b5" text-anchor="middle" style="white-space: pre;" direction="ltr" dominant-baseline="text-before-edge">开始进入生命周期</text><text x="201.947265625" y="32.199999999999996" font-family="Helvetica, Segoe UI Emoji" font-size="28px" fill="#9c36b5" text-anchor="middle" style="white-space: pre;" direction="ltr" dominant-baseline="text-before-edge">mount-&gt;unmount-&gt;bootstrap-&gt;...</text></g><g stroke-linecap="round"><g transform="translate(446.57763671875 970.734375) rotate(0 2.099568420857622 54.552486873757516)"><path d="M0.01 -0.01 C0.73 18.18, 3.63 91.08, 4.37 109.25 M-0.17 -0.15 C0.52 17.99, 3.47 90.79, 4.22 109.01" stroke="#1e1e1e" stroke-width="2" fill="none"></path></g><g transform="translate(446.57763671875 970.734375) rotate(0 2.099568420857622 54.552486873757516)"><path d="M-7.18 81.26 C-3.38 90.4, 0.55 99.78, 4.22 109.01 M-7.18 81.26 C-4.7 87.17, -2.32 92.78, 4.22 109.01" stroke="#1e1e1e" stroke-width="2" fill="none"></path></g><g transform="translate(446.57763671875 970.734375) rotate(0 2.099568420857622 54.552486873757516)"><path d="M13.32 80.42 C10.3 89.84, 7.41 99.5, 4.22 109.01 M13.32 80.42 C11.54 86.53, 9.65 92.31, 4.22 109.01" stroke="#1e1e1e" stroke-width="2" fill="none"></path></g></g><mask></mask></svg>